<svg height="32" viewBox="0 0 27 32" width="27" xmlns="http://www.w3.org/2000/svg"><path d="m23.738 16.031-.873-.54c-.007-.085-.015-.17-.025-.254l.75-.7c.076-.071.11-.176.09-.278s-.092-.187-.189-.223l-.959-.359c-.024-.083-.049-.165-.075-.248l.598-.831c.061-.084.073-.194.034-.291s-.127-.165-.229-.182l-1.011-.165c-.039-.077-.08-.152-.122-.227l.425-.933c.043-.095.035-.205-.024-.292s-.155-.137-.26-.133l-1.026.036c-.053-.066-.107-.132-.162-.197l.236-1c.024-.102-.006-.208-.08-.282s-.18-.104-.281-.08l-.999.236c-.065-.055-.131-.109-.197-.162l.036-1.026c.004-.104-.047-.203-.133-.26s-.197-.067-.291-.024l-.933.425c-.075-.041-.151-.082-.227-.122l-.165-1.011c-.017-.103-.085-.19-.182-.229s-.206-.027-.29.034l-.831.598c-.082-.026-.164-.051-.247-.075l-.359-.959c-.036-.098-.121-.17-.223-.19s-.207.014-.278.09l-.7.751c-.084-.009-.169-.018-.254-.025l-.54-.873c-.055-.088-.152-.142-.256-.142s-.201.054-.255.142l-.54.873c-.085.007-.17.016-.255.025l-.7-.751c-.071-.076-.176-.11-.278-.09s-.187.092-.223.19l-.359.959c-.083.024-.165.049-.247.075l-.831-.598c-.085-.061-.195-.074-.291-.034s-.165.127-.181.229l-.165 1.011c-.076.039-.152.08-.227.122l-.933-.425c-.095-.043-.205-.034-.292.024s-.137.156-.133.26l.036 1.026c-.066.053-.132.107-.197.162l-1-.236c-.101-.024-.208.007-.281.08s-.104.18-.08.282l.236 1c-.055.065-.109.13-.162.197l-1.026-.036c-.104-.003-.202.047-.26.133s-.067.197-.024.292l.425.933c-.041.075-.082.15-.122.227l-1.011.165c-.103.017-.189.085-.229.182s-.027.206.034.291l.598.831c-.026.082-.051.165-.075.248l-.959.359c-.097.036-.169.121-.189.223s.014.207.09.278l.75.7c-.009.085-.018.169-.025.254l-.873.54c-.088.055-.142.151-.142.256s.054.201.142.255l.873.54c.007.085.016.17.025.254l-.75.7c-.076.071-.11.176-.09.278s.092.186.189.223l.959.359c.024.083.049.166.075.248l-.598.831c-.061.085-.074.194-.034.29s.127.165.229.182l1.011.165c.039.077.08.152.122.227l-.425.932c-.043.095-.034.205.024.292s.157.137.26.133l1.026-.036c.053.067.107.132.162.197l-.236 1c-.024.102.006.207.08.281s.18.104.281.08l1-.235c.065.055.131.109.197.162l-.036 1.027c-.004.104.047.203.133.26s.197.067.292.023l.933-.425c.075.042.151.082.227.122l.165 1.011c.017.103.085.19.182.229s.206.027.291-.033l.831-.599c.082.026.165.051.248.075l.359.959c.036.097.121.169.223.189s.207-.014.278-.09l.7-.75c.084.01.17.018.255.025l.54.873c.054.088.151.142.255.142s.201-.054.255-.142l.54-.873c.085-.007.17-.016.254-.025l.7.75c.071.076.176.11.278.09s.186-.092.223-.189l.359-.959c.083-.024.166-.049.248-.075l.831.599c.084.061.194.073.29.033s.165-.127.182-.229l.165-1.011c.076-.04.152-.081.227-.122l.933.425c.095.043.205.035.291-.023s.137-.156.133-.26l-.036-1.027c.066-.053.132-.107.197-.162l1 .235c.101.024.208-.006.281-.08s.104-.18.08-.281l-.235-1c.055-.065.109-.13.162-.197l1.026.036c.104.004.203-.046.26-.133s.067-.197.023-.292l-.425-.932c.041-.075.082-.151.122-.227l1.011-.165c.103-.016.189-.085.229-.182s.027-.206-.034-.29l-.598-.831c.026-.082.051-.165.075-.248l.959-.359c.097-.037.169-.121.189-.223.021-.102-.013-.207-.09-.278l-.75-.7c.009-.085.017-.169.025-.254l.873-.54c.088-.054.142-.151.142-.255s-.054-.201-.142-.256zm-5.843 7.241c-.333-.072-.545-.401-.474-.735s.4-.547.733-.474c.334.071.546.4.474.734s-.4.546-.733.475zm-.297-2.006c-.304-.065-.603.128-.668.433l-.31 1.447c-.957.434-2.018.675-3.137.675-1.144 0-2.229-.253-3.203-.706l-.31-1.446c-.065-.304-.364-.498-.668-.433l-1.277.274c-.237-.244-.457-.504-.66-.778h6.213c.07 0 .117-.013.117-.077v-2.198c0-.064-.047-.077-.117-.077h-1.817v-1.393h1.965c.179 0 .959.051 1.208 1.048.078.306.25 1.304.367 1.623.117.358.592 1.073 1.099 1.073h3.096c.035 0 .073-.004.112-.011-.215.292-.45.568-.704.826l-1.306-.281zm-8.592 1.976c-.333.072-.662-.141-.733-.475s.141-.663.474-.735c.333-.071.662.141.733.475s-.141.663-.474.735zm-2.357-9.557c.138.312-.002.678-.314.816s-.676-.002-.815-.315c-.138-.312.002-.677.314-.816s.676.002.815.315zm-.724 1.717 1.33-.591c.284-.126.412-.459.286-.744l-.274-.62h1.077v4.856h-2.174c-.189-.663-.29-1.362-.29-2.085 0-.276.015-.549.043-.817zm5.837-.471v-1.431h2.566c.133 0 .936.153.936.754 0 .499-.616.677-1.123.677zm9.323 1.288c0 .19-.007.378-.021.564h-.78c-.078 0-.11.051-.11.128v.358c0 .843-.476 1.027-.892 1.073-.397.045-.837-.166-.891-.409-.234-1.316-.624-1.597-1.24-2.083.765-.485 1.56-1.201 1.56-2.16 0-1.035-.71-1.687-1.193-2.006-.679-.447-1.43-.537-1.632-.537h-8.067c1.094-1.221 2.576-2.085 4.253-2.4l.951.998c.215.225.571.233.796.018l1.064-1.018c2.229.415 4.117 1.803 5.204 3.707l-.728 1.645c-.126.285.003.618.287.744l1.402.623c.024.249.037.501.037.755zm-8.061-8.32c.246-.236.637-.227.873.02s.226.639-.021.874c-.246.236-.637.227-.873-.02s-.226-.638.021-.874zm7.228 5.816c.138-.312.503-.453.815-.315s.452.504.314.816-.503.453-.815.315-.452-.504-.314-.816z" fill="#444"/></svg>